An evil queen steals control of a kingdom and an exiled princess enlists the help of seven resourceful rebels to win back her birthright.

Complete name : Mirror.Mirror.2012.TS.V2.READ.NFO.XViD.AC3-ADTRG.avi
Format : AVI
Format/Info : Audio Video Interleave
File size : 1.37 GiB
Duration : 1h 38mn
Overall bit rate : 1 992 Kbps
Writing library : VirtualDub build 34703/release

Video
ID : 0
Format : MPEG-4 Visual
Codec ID : XVID
Duration : 1h 38mn
Bit rate : 1 795 Kbps
Width : 720 pixels
Height : 280 pixels
Display aspect ratio : 2.571
Frame rate : 25.000 fps
Stream size : 1.23 GiB (90%)

Audio
ID : 1
Format : AC-3
Bit rate : 192 Kbps
Channel(s) : 2 channels
Channel positions : Front: L R
Sampling rate : 48.0 KHz
Stream size : 131 MiB (9%)


Source - cam video - Mirror Mirror 2012 CAM XViD-WBZ Thanks
Source - Line Audio - Dragon Exclusive Awesome work bro
cam audio - for last 2 1/2 minutes(singing) yipppeee

Encoder - LiMeY
notes- run filters, synced our Awesome new line audio and then got russan cam audio for last 2 1/2 mins filtered/synced and muxed together
,didnt want the kids upset so added for your viewing pleasure but no grilling this time.
Once again i'd like to say thanks to every one at Dragon. your all a Great team and good friends.
your know where to find us, come and say hi

 
http://imgcrave.com/u/P4zYq.png